<svg xmlns="http://www.w3.org/2000/svg" viewBox="0 0 680 620" font-family="system-ui,-apple-system,Segoe UI,sans-serif">
<rect x="0" y="0" width="680" height="620" rx="14" fill="#fcfcfb" stroke="#e1e0d9"/>
<text x="28" y="38" font-size="20" font-weight="700" fill="#0b0b0b">Chunking is just tiling the matrix L</text>
<text x="28" y="62" font-size="13" fill="#52514e">Fill each orange diagonal block with a fast parallel matmul; stitch blocks with one cheap blue thread of carried state.</text>
<rect x="90" y="110" width="52" height="52" fill="#eef1f5" stroke="#fcfcfb" stroke-width="2"/>
<rect x="142" y="110" width="52" height="52" fill="#f7f6f3" stroke="#fcfcfb" stroke-width="2"/>
<rect x="194" y="110" width="52" height="52" fill="#f7f6f3" stroke="#fcfcfb" stroke-width="2"/>
<rect x="246" y="110" width="52" height="52" fill="#f7f6f3" stroke="#fcfcfb" stroke-width="2"/>
<rect x="298" y="110" width="52" height="52" fill="#f7f6f3" stroke="#fcfcfb" stroke-width="2"/>
<rect x="350" y="110" width="52" height="52" fill="#f7f6f3" stroke="#fcfcfb" stroke-width="2"/>
<rect x="402" y="110" width="52" height="52" fill="#f7f6f3" stroke="#fcfcfb" stroke-width="2"/>
<rect x="454" y="110" width="52" height="52" fill="#f7f6f3" stroke="#fcfcfb" stroke-width="2"/>
<rect x="90" y="162" width="52" height="52" fill="#eef1f5" stroke="#fcfcfb" stroke-width="2"/>
<rect x="142" y="162" width="52" height="52" fill="#eef1f5" stroke="#fcfcfb" stroke-width="2"/>
<rect x="194" y="162" width="52" height="52" fill="#f7f6f3" stroke="#fcfcfb" stroke-width="2"/>
<rect x="246" y="162" width="52" height="52" fill="#f7f6f3" stroke="#fcfcfb" stroke-width="2"/>
<rect x="298" y="162" width="52" height="52" fill="#f7f6f3" stroke="#fcfcfb" stroke-width="2"/>
<rect x="350" y="162" width="52" height="52" fill="#f7f6f3" stroke="#fcfcfb" stroke-width="2"/>
<rect x="402" y="162" width="52" height="52" fill="#f7f6f3" stroke="#fcfcfb" stroke-width="2"/>
<rect x="454" y="162" width="52" height="52" fill="#f7f6f3" stroke="#fcfcfb" stroke-width="2"/>
<rect x="90" y="214" width="52" height="52" fill="#eef1f5" stroke="#fcfcfb" stroke-width="2"/>
<rect x="142" y="214" width="52" height="52" fill="#eef1f5" stroke="#fcfcfb" stroke-width="2"/>
<rect x="194" y="214" width="52" height="52" fill="#eef1f5" stroke="#fcfcfb" stroke-width="2"/>
<rect x="246" y="214" width="52" height="52" fill="#f7f6f3" stroke="#fcfcfb" stroke-width="2"/>
<rect x="298" y="214" width="52" height="52" fill="#f7f6f3" stroke="#fcfcfb" stroke-width="2"/>
<rect x="350" y="214" width="52" height="52" fill="#f7f6f3" stroke="#fcfcfb" stroke-width="2"/>
<rect x="402" y="214" width="52" height="52" fill="#f7f6f3" stroke="#fcfcfb" stroke-width="2"/>
<rect x="454" y="214" width="52" height="52" fill="#f7f6f3" stroke="#fcfcfb" stroke-width="2"/>
<rect x="90" y="266" width="52" height="52" fill="#eef1f5" stroke="#fcfcfb" stroke-width="2"/>
<rect x="142" y="266" width="52" height="52" fill="#eef1f5" stroke="#fcfcfb" stroke-width="2"/>
<rect x="194" y="266" width="52" height="52" fill="#eef1f5" stroke="#fcfcfb" stroke-width="2"/>
<rect x="246" y="266" width="52" height="52" fill="#eef1f5" stroke="#fcfcfb" stroke-width="2"/>
<rect x="298" y="266" width="52" height="52" fill="#f7f6f3" stroke="#fcfcfb" stroke-width="2"/>
<rect x="350" y="266" width="52" height="52" fill="#f7f6f3" stroke="#fcfcfb" stroke-width="2"/>
<rect x="402" y="266" width="52" height="52" fill="#f7f6f3" stroke="#fcfcfb" stroke-width="2"/>
<rect x="454" y="266" width="52" height="52" fill="#f7f6f3" stroke="#fcfcfb" stroke-width="2"/>
<rect x="90" y="318" width="52" height="52" fill="#eef1f5" stroke="#fcfcfb" stroke-width="2"/>
<rect x="142" y="318" width="52" height="52" fill="#eef1f5" stroke="#fcfcfb" stroke-width="2"/>
<rect x="194" y="318" width="52" height="52" fill="#eef1f5" stroke="#fcfcfb" stroke-width="2"/>
<rect x="246" y="318" width="52" height="52" fill="#eef1f5" stroke="#fcfcfb" stroke-width="2"/>
<rect x="298" y="318" width="52" height="52" fill="#eef1f5" stroke="#fcfcfb" stroke-width="2"/>
<rect x="350" y="318" width="52" height="52" fill="#f7f6f3" stroke="#fcfcfb" stroke-width="2"/>
<rect x="402" y="318" width="52" height="52" fill="#f7f6f3" stroke="#fcfcfb" stroke-width="2"/>
<rect x="454" y="318" width="52" height="52" fill="#f7f6f3" stroke="#fcfcfb" stroke-width="2"/>
<rect x="90" y="370" width="52" height="52" fill="#eef1f5" stroke="#fcfcfb" stroke-width="2"/>
<rect x="142" y="370" width="52" height="52" fill="#eef1f5" stroke="#fcfcfb" stroke-width="2"/>
<rect x="194" y="370" width="52" height="52" fill="#eef1f5" stroke="#fcfcfb" stroke-width="2"/>
<rect x="246" y="370" width="52" height="52" fill="#eef1f5" stroke="#fcfcfb" stroke-width="2"/>
<rect x="298" y="370" width="52" height="52" fill="#eef1f5" stroke="#fcfcfb" stroke-width="2"/>
<rect x="350" y="370" width="52" height="52" fill="#eef1f5" stroke="#fcfcfb" stroke-width="2"/>
<rect x="402" y="370" width="52" height="52" fill="#f7f6f3" stroke="#fcfcfb" stroke-width="2"/>
<rect x="454" y="370" width="52" height="52" fill="#f7f6f3" stroke="#fcfcfb" stroke-width="2"/>
<rect x="90" y="422" width="52" height="52" fill="#eef1f5" stroke="#fcfcfb" stroke-width="2"/>
<rect x="142" y="422" width="52" height="52" fill="#eef1f5" stroke="#fcfcfb" stroke-width="2"/>
<rect x="194" y="422" width="52" height="52" fill="#eef1f5" stroke="#fcfcfb" stroke-width="2"/>
<rect x="246" y="422" width="52" height="52" fill="#eef1f5" stroke="#fcfcfb" stroke-width="2"/>
<rect x="298" y="422" width="52" height="52" fill="#eef1f5" stroke="#fcfcfb" stroke-width="2"/>
<rect x="350" y="422" width="52" height="52" fill="#eef1f5" stroke="#fcfcfb" stroke-width="2"/>
<rect x="402" y="422" width="52" height="52" fill="#eef1f5" stroke="#fcfcfb" stroke-width="2"/>
<rect x="454" y="422" width="52" height="52" fill="#f7f6f3" stroke="#fcfcfb" stroke-width="2"/>
<rect x="90" y="474" width="52" height="52" fill="#eef1f5" stroke="#fcfcfb" stroke-width="2"/>
<rect x="142" y="474" width="52" height="52" fill="#eef1f5" stroke="#fcfcfb" stroke-width="2"/>
<rect x="194" y="474" width="52" height="52" fill="#eef1f5" stroke="#fcfcfb" stroke-width="2"/>
<rect x="246" y="474" width="52" height="52" fill="#eef1f5" stroke="#fcfcfb" stroke-width="2"/>
<rect x="298" y="474" width="52" height="52" fill="#eef1f5" stroke="#fcfcfb" stroke-width="2"/>
<rect x="350" y="474" width="52" height="52" fill="#eef1f5" stroke="#fcfcfb" stroke-width="2"/>
<rect x="402" y="474" width="52" height="52" fill="#eef1f5" stroke="#fcfcfb" stroke-width="2"/>
<rect x="454" y="474" width="52" height="52" fill="#eef1f5" stroke="#fcfcfb" stroke-width="2"/>
<rect x="90" y="110" width="156" height="156" fill="#fbe9df" stroke="#eb6834" stroke-width="3"/>
<text x="168" y="192" font-size="11" fill="#eb6834" text-anchor="middle" font-weight="700">matmul</text>
<path d="M168,262 L242,268" stroke="#2a78d6" stroke-width="2.5" fill="none" marker-end="url(#ar)"/>
<rect x="246" y="266" width="156" height="156" fill="#fbe9df" stroke="#eb6834" stroke-width="3"/>
<text x="324" y="348" font-size="11" fill="#eb6834" text-anchor="middle" font-weight="700">matmul</text>
<rect x="90" y="266" width="156" height="156" fill="#dbe8fb" stroke="#2a78d6" stroke-width="1.5" opacity="0.75"/>
<path d="M324,418 L398,424" stroke="#2a78d6" stroke-width="2.5" fill="none" marker-end="url(#ar)"/>
<rect x="402" y="422" width="104" height="104" fill="#fbe9df" stroke="#eb6834" stroke-width="3"/>
<text x="454" y="478" font-size="11" fill="#eb6834" text-anchor="middle" font-weight="700">matmul</text>
<rect x="90" y="422" width="312" height="104" fill="#dbe8fb" stroke="#2a78d6" stroke-width="1.5" opacity="0.75"/>
<defs><marker id="ar" markerWidth="8" markerHeight="8" refX="6" refY="3" orient="auto"><path d="M0,0 L6,3 L0,6 Z" fill="#2a78d6"/></marker></defs>
<text x="90" y="556" font-size="12" fill="#0A2540"><tspan fill="#eb6834" font-weight="700">orange blocks</tspan> = parallel matmul (GEMM, tensor cores)</text>
<text x="90" y="578" font-size="12" fill="#0A2540"><tspan fill="#2a78d6" font-weight="700">blue region + arrow</tspan> = small summary state carried chunk to chunk (cheap recurrence)</text>
<text x="28" y="606" font-size="12.5" fill="#52514e">Attention inside each chunk, a thin recurrence between: reading the novel chapter by chapter.</text>
</svg>
