<svg xmlns="http://www.w3.org/2000/svg" viewBox="0 0 760 360" font-family="system-ui,-apple-system,Segoe UI,sans-serif">
<rect x="0" y="0" width="760" height="360" rx="14" fill="#fcfcfb" stroke="#e1e0d9"/>
<text x="28" y="38" font-size="20" font-weight="700" fill="#0b0b0b">Same chip, very different occupancy (intuition, not a benchmark)</text>
<text x="28" y="62" font-size="13" fill="#52514e">A bespoke scan keeps a moving front busy while the rest idles; GEMM lights up the whole stadium at once.</text>
<text x="90" y="96" font-size="13" font-weight="700" fill="#2a78d6">Mamba scan kernel</text>
<rect x="90" y="110" width="24" height="24" rx="3" fill="#e6e5df"/>
<rect x="120" y="110" width="24" height="24" rx="3" fill="#e6e5df"/>
<rect x="150" y="110" width="24" height="24" rx="3" fill="#e6e5df"/>
<rect x="180" y="110" width="24" height="24" rx="3" fill="#e6e5df"/>
<rect x="210" y="110" width="24" height="24" rx="3" fill="#e6e5df"/>
<rect x="240" y="110" width="24" height="24" rx="3" fill="#e6e5df"/>
<rect x="270" y="110" width="24" height="24" rx="3" fill="#e6e5df"/>
<rect x="300" y="110" width="24" height="24" rx="3" fill="#eb6834"/>
<rect x="90" y="140" width="24" height="24" rx="3" fill="#e6e5df"/>
<rect x="120" y="140" width="24" height="24" rx="3" fill="#e6e5df"/>
<rect x="150" y="140" width="24" height="24" rx="3" fill="#e6e5df"/>
<rect x="180" y="140" width="24" height="24" rx="3" fill="#e6e5df"/>
<rect x="210" y="140" width="24" height="24" rx="3" fill="#e6e5df"/>
<rect x="240" y="140" width="24" height="24" rx="3" fill="#e6e5df"/>
<rect x="270" y="140" width="24" height="24" rx="3" fill="#eb6834"/>
<rect x="300" y="140" width="24" height="24" rx="3" fill="#e6e5df"/>
<rect x="90" y="170" width="24" height="24" rx="3" fill="#e6e5df"/>
<rect x="120" y="170" width="24" height="24" rx="3" fill="#e6e5df"/>
<rect x="150" y="170" width="24" height="24" rx="3" fill="#e6e5df"/>
<rect x="180" y="170" width="24" height="24" rx="3" fill="#e6e5df"/>
<rect x="210" y="170" width="24" height="24" rx="3" fill="#e6e5df"/>
<rect x="240" y="170" width="24" height="24" rx="3" fill="#eb6834"/>
<rect x="270" y="170" width="24" height="24" rx="3" fill="#e6e5df"/>
<rect x="300" y="170" width="24" height="24" rx="3" fill="#e6e5df"/>
<rect x="90" y="200" width="24" height="24" rx="3" fill="#e6e5df"/>
<rect x="120" y="200" width="24" height="24" rx="3" fill="#e6e5df"/>
<rect x="150" y="200" width="24" height="24" rx="3" fill="#e6e5df"/>
<rect x="180" y="200" width="24" height="24" rx="3" fill="#e6e5df"/>
<rect x="210" y="200" width="24" height="24" rx="3" fill="#eb6834"/>
<rect x="240" y="200" width="24" height="24" rx="3" fill="#e6e5df"/>
<rect x="270" y="200" width="24" height="24" rx="3" fill="#e6e5df"/>
<rect x="300" y="200" width="24" height="24" rx="3" fill="#e6e5df"/>
<rect x="90" y="230" width="24" height="24" rx="3" fill="#e6e5df"/>
<rect x="120" y="230" width="24" height="24" rx="3" fill="#e6e5df"/>
<rect x="150" y="230" width="24" height="24" rx="3" fill="#e6e5df"/>
<rect x="180" y="230" width="24" height="24" rx="3" fill="#eb6834"/>
<rect x="210" y="230" width="24" height="24" rx="3" fill="#e6e5df"/>
<rect x="240" y="230" width="24" height="24" rx="3" fill="#e6e5df"/>
<rect x="270" y="230" width="24" height="24" rx="3" fill="#e6e5df"/>
<rect x="300" y="230" width="24" height="24" rx="3" fill="#e6e5df"/>
<rect x="90" y="260" width="24" height="24" rx="3" fill="#e6e5df"/>
<rect x="120" y="260" width="24" height="24" rx="3" fill="#e6e5df"/>
<rect x="150" y="260" width="24" height="24" rx="3" fill="#eb6834"/>
<rect x="180" y="260" width="24" height="24" rx="3" fill="#e6e5df"/>
<rect x="210" y="260" width="24" height="24" rx="3" fill="#e6e5df"/>
<rect x="240" y="260" width="24" height="24" rx="3" fill="#e6e5df"/>
<rect x="270" y="260" width="24" height="24" rx="3" fill="#e6e5df"/>
<rect x="300" y="260" width="24" height="24" rx="3" fill="#e6e5df"/>
<rect x="90" y="290" width="24" height="24" rx="3" fill="#e6e5df"/>
<rect x="120" y="290" width="24" height="24" rx="3" fill="#eb6834"/>
<rect x="150" y="290" width="24" height="24" rx="3" fill="#e6e5df"/>
<rect x="180" y="290" width="24" height="24" rx="3" fill="#e6e5df"/>
<rect x="210" y="290" width="24" height="24" rx="3" fill="#e6e5df"/>
<rect x="240" y="290" width="24" height="24" rx="3" fill="#e6e5df"/>
<rect x="270" y="290" width="24" height="24" rx="3" fill="#e6e5df"/>
<rect x="300" y="290" width="24" height="24" rx="3" fill="#e6e5df"/>
<rect x="90" y="320" width="24" height="24" rx="3" fill="#eb6834"/>
<rect x="120" y="320" width="24" height="24" rx="3" fill="#e6e5df"/>
<rect x="150" y="320" width="24" height="24" rx="3" fill="#e6e5df"/>
<rect x="180" y="320" width="24" height="24" rx="3" fill="#e6e5df"/>
<rect x="210" y="320" width="24" height="24" rx="3" fill="#e6e5df"/>
<rect x="240" y="320" width="24" height="24" rx="3" fill="#e6e5df"/>
<rect x="270" y="320" width="24" height="24" rx="3" fill="#e6e5df"/>
<rect x="300" y="320" width="24" height="24" rx="3" fill="#e6e5df"/>
<text x="90" y="372" font-size="11.5" fill="#898781">a moving front works; the stadium mostly waits</text>
<text x="440" y="96" font-size="13" font-weight="700" fill="#eb6834">GEMM / attention</text>
<rect x="440" y="110" width="24" height="24" rx="3" fill="#eb6834"/>
<rect x="470" y="110" width="24" height="24" rx="3" fill="#eb6834"/>
<rect x="500" y="110" width="24" height="24" rx="3" fill="#eb6834"/>
<rect x="530" y="110" width="24" height="24" rx="3" fill="#eb6834"/>
<rect x="560" y="110" width="24" height="24" rx="3" fill="#eb6834"/>
<rect x="590" y="110" width="24" height="24" rx="3" fill="#eb6834"/>
<rect x="620" y="110" width="24" height="24" rx="3" fill="#eb6834"/>
<rect x="650" y="110" width="24" height="24" rx="3" fill="#eb6834"/>
<rect x="440" y="140" width="24" height="24" rx="3" fill="#eb6834"/>
<rect x="470" y="140" width="24" height="24" rx="3" fill="#eb6834"/>
<rect x="500" y="140" width="24" height="24" rx="3" fill="#eb6834"/>
<rect x="530" y="140" width="24" height="24" rx="3" fill="#eb6834"/>
<rect x="560" y="140" width="24" height="24" rx="3" fill="#eb6834"/>
<rect x="590" y="140" width="24" height="24" rx="3" fill="#eb6834"/>
<rect x="620" y="140" width="24" height="24" rx="3" fill="#eb6834"/>
<rect x="650" y="140" width="24" height="24" rx="3" fill="#eb6834"/>
<rect x="440" y="170" width="24" height="24" rx="3" fill="#eb6834"/>
<rect x="470" y="170" width="24" height="24" rx="3" fill="#eb6834"/>
<rect x="500" y="170" width="24" height="24" rx="3" fill="#eb6834"/>
<rect x="530" y="170" width="24" height="24" rx="3" fill="#eb6834"/>
<rect x="560" y="170" width="24" height="24" rx="3" fill="#eb6834"/>
<rect x="590" y="170" width="24" height="24" rx="3" fill="#eb6834"/>
<rect x="620" y="170" width="24" height="24" rx="3" fill="#eb6834"/>
<rect x="650" y="170" width="24" height="24" rx="3" fill="#eb6834"/>
<rect x="440" y="200" width="24" height="24" rx="3" fill="#eb6834"/>
<rect x="470" y="200" width="24" height="24" rx="3" fill="#eb6834"/>
<rect x="500" y="200" width="24" height="24" rx="3" fill="#eb6834"/>
<rect x="530" y="200" width="24" height="24" rx="3" fill="#eb6834"/>
<rect x="560" y="200" width="24" height="24" rx="3" fill="#eb6834"/>
<rect x="590" y="200" width="24" height="24" rx="3" fill="#eb6834"/>
<rect x="620" y="200" width="24" height="24" rx="3" fill="#eb6834"/>
<rect x="650" y="200" width="24" height="24" rx="3" fill="#eb6834"/>
<rect x="440" y="230" width="24" height="24" rx="3" fill="#eb6834"/>
<rect x="470" y="230" width="24" height="24" rx="3" fill="#eb6834"/>
<rect x="500" y="230" width="24" height="24" rx="3" fill="#eb6834"/>
<rect x="530" y="230" width="24" height="24" rx="3" fill="#eb6834"/>
<rect x="560" y="230" width="24" height="24" rx="3" fill="#eb6834"/>
<rect x="590" y="230" width="24" height="24" rx="3" fill="#eb6834"/>
<rect x="620" y="230" width="24" height="24" rx="3" fill="#eb6834"/>
<rect x="650" y="230" width="24" height="24" rx="3" fill="#eb6834"/>
<rect x="440" y="260" width="24" height="24" rx="3" fill="#eb6834"/>
<rect x="470" y="260" width="24" height="24" rx="3" fill="#eb6834"/>
<rect x="500" y="260" width="24" height="24" rx="3" fill="#eb6834"/>
<rect x="530" y="260" width="24" height="24" rx="3" fill="#eb6834"/>
<rect x="560" y="260" width="24" height="24" rx="3" fill="#eb6834"/>
<rect x="590" y="260" width="24" height="24" rx="3" fill="#eb6834"/>
<rect x="620" y="260" width="24" height="24" rx="3" fill="#eb6834"/>
<rect x="650" y="260" width="24" height="24" rx="3" fill="#eb6834"/>
<rect x="440" y="290" width="24" height="24" rx="3" fill="#eb6834"/>
<rect x="470" y="290" width="24" height="24" rx="3" fill="#eb6834"/>
<rect x="500" y="290" width="24" height="24" rx="3" fill="#eb6834"/>
<rect x="530" y="290" width="24" height="24" rx="3" fill="#eb6834"/>
<rect x="560" y="290" width="24" height="24" rx="3" fill="#eb6834"/>
<rect x="590" y="290" width="24" height="24" rx="3" fill="#eb6834"/>
<rect x="620" y="290" width="24" height="24" rx="3" fill="#eb6834"/>
<rect x="650" y="290" width="24" height="24" rx="3" fill="#eb6834"/>
<rect x="440" y="320" width="24" height="24" rx="3" fill="#eb6834"/>
<rect x="470" y="320" width="24" height="24" rx="3" fill="#eb6834"/>
<rect x="500" y="320" width="24" height="24" rx="3" fill="#eb6834"/>
<rect x="530" y="320" width="24" height="24" rx="3" fill="#eb6834"/>
<rect x="560" y="320" width="24" height="24" rx="3" fill="#eb6834"/>
<rect x="590" y="320" width="24" height="24" rx="3" fill="#eb6834"/>
<rect x="620" y="320" width="24" height="24" rx="3" fill="#eb6834"/>
<rect x="650" y="320" width="24" height="24" rx="3" fill="#eb6834"/>
<text x="440" y="372" font-size="11.5" fill="#898781">every seat rehearsed this one move: all busy</text>
<text x="28" y="338" font-size="12.5" fill="#52514e">This is why we want Mamba's math in GEMM form: the scan's low arithmetic intensity starves the cores; the matmul saturates them.</text>
</svg>
